# xmcd
#
# Track frame offsets:
#  150
#  11708
#  22329
#  36545
#  46611
#  67705
#  83243
#  93532
#  108509
#  118533
#  132842
#  146792
#  163277
#  178074
#
# Disc length: 2479 seconds
#
# Revision: 0
# Processed by: cddbd v1.5.1PL2 Copyright (c) Steve Scherf et al.
# Submitted via: Collectorz.com_Music_Collector 6.9
#
DISCID=c409ad0e
DTITLE=Boontjes, Gerard - It's Never Too Late
DYEAR=1900
DGENRE=
TTITLE0=It's Never Too Late
TTITLE1=Happy Again
TTITLE2=A Lazy Day
TTITLE3=Petite Waltz
TTITLE4=Turnpike
TTITLE5=Anna Louise
TTITLE6=Blue Angel
TTITLE7=Borsalino
TTITLE8=Renbournesque
TTITLE9=After You've Gone/I'll See You In My Dreams
TTITLE10=Road To Gundaghi/Waltzing Mathilda
TTITLE11=Little Man (Leslie's Song)
TTITLE12=Struttin'
TTITLE13=Mr. Sandman
EXTD=
EXTT0=
EXTT1=
EXTT2=
EXTT3=
EXTT4=
EXTT5=
EXTT6=
EXTT7=
EXTT8=
EXTT9=
EXTT10=
EXTT11=
EXTT12=
EXTT13=
PLAYORDER=
